# xmcd
#
# Track frame offsets: 
#        150
#        27868
#        47115
#        73092
#        162499
#        202033
#
# Disc length: 2993 seconds
#
# Revision: 0
# Processed by: cddbd v1.5.2PL0 Copyright (c) Steve Scherf et al.
# Submitted via: ExactAudioCopy v1.1
#
DISCID=540baf06
DTITLE=Canned Heat with John Lee Hooker - Carnegie Hall 1971
DYEAR=2015
DGENRE=Blues
TTITLE0=Framed
TTITLE1=Let's Work Together
TTITLE2=Hey Babe
TTITLE3=Shake'n' Boogie
TTITLE4=Back Door Man
TTITLE5=Tease Me Baby
EXTD=
EXTT0=
EXTT1=
EXTT2=
EXTT3=
EXTT4=
EXTT5=
PLAYORDER=
